<?xml version='1.0' encoding='utf-8'?>
<svg xmlns="http://www.w3.org/2000/svg" width="215.9mm" height="279.4mm" viewBox="0 0 215.9 279.4"><defs><clipPath id="tile-clip" clipPathUnits="userSpaceOnUse"><rect x="18.0" y="-296.0" width="195.9" height="224.39999999999998" /></clipPath></defs><g transform="translate(-8.0 321.0)" clip-path="url(#tile-clip)"><path d="M 18.5 -45 L 67 -45" fill="none" stroke="#0066cc" stroke-width="0.25" stroke-dasharray="2 2" data-station="45" /><text x="69" y="-46" fill="#666666" font-size="3.2" font-family="sans-serif">Adapter center: 45 mm</text><path d="M 18.5 -34 L 30 -34 L 30 -56 L 18.5 -56 Z" fill="none" stroke="#0066cc" stroke-width="0.25" stroke-dasharray="2 2" /><path d="M 18.5 -225 L 67 -225" fill="none" stroke="#0066cc" stroke-width="0.25" stroke-dasharray="2 2" data-station="225" /><text x="69" y="-226" fill="#666666" font-size="3.2" font-family="sans-serif">Adapter center: 225 mm</text><path d="M 18.5 -214 L 30 -214 L 30 -236 L 18.5 -236 Z" fill="none" stroke="#0066cc" stroke-width="0.25" stroke-dasharray="2 2" /><text x="69" y="-40" fill="#666666" font-size="3.2" font-family="sans-serif">Dashed boxes: seating bands; DO NOT CUT</text><path d="M 81.3 -76.60000000000002 L 85.3 -76.60000000000002 M 83.3 -78.60000000000002 L 83.3 -74.60000000000002" fill="none" stroke="#666666" stroke-width="0.25" /><path d="M 146.6 -76.60000000000002 L 150.6 -76.60000000000002 M 148.6 -78.60000000000002 L 148.6 -74.60000000000002" fill="none" stroke="#666666" stroke-width="0.25" /><g id="cut"><path d=" M 37,-16 L 33,-34 L 48,-34 L 59,-62 L 47,-57 L 65,-95  L 50,-118 L 58,-185 L 47,-203 L 53,-214 L 45,-236 L 57,-250  L 38,-262 L 36,-295.275 L 29,-279 L 25,-255 L 18.5,-236 L 18.5,-214  L 26,-197 L 31,-163 L 27,-128 L 23,-96 L 18.5,-56 L 18.5,-34  L 23,-18 L 18.5,-0 z " stroke="#000000" fill="none" stroke-width=".35" stroke-linejoin="round" />
</g></g><text x="10" y="13" fill="#666666" font-size="3.2" font-family="sans-serif">Sauron blade | LETTER 1/2 | Actual Size / 100%</text><text x="10" y="19" fill="#666666" font-size="3.2" font-family="sans-serif">SOLID BLACK: cut. DASHED BLUE: mount references, not cuts. GRAY: alignment.</text><path id="calibration" d="M 20 261.4 L 120 261.4 M 20 259.4 L 20 263.4 M 120 259.4 L 120 263.4" fill="none" stroke="#cc0000" stroke-width="0.4" /><text x="20" y="268.4" fill="#666666" font-size="3.2" font-family="sans-serif">100 mm: check with ruler. NO Fit / Shrink to page.</text></svg>